<?xml version="1.0" standalone="no"?>
<!DOCTYPE svg PUBLIC "-//W3C//DTD SVG 20010904//EN"
 "http://www.w3.org/TR/2001/REC-SVG-20010904/DTD/svg10.dtd">
<svg version="1.0" xmlns="http://www.w3.org/2000/svg"
 width="200.000000pt" height="200.000000pt" viewBox="0 0 200.000000 200.000000"
 preserveAspectRatio="xMidYMid meet">
<metadata>
Created by potrace 1.16, written by Peter Selinger 2001-2019
</metadata>
<g transform="translate(0.000000,200.000000) scale(0.100000,-0.100000)"
fill="#000000" stroke="none">
<path d="M875 1913 c-334 -53 -624 -284 -734 -583 -46 -127 -55 -181 -55 -330
0 -119 4 -160 23 -230 86 -321 340 -575 661 -661 70 -19 111 -23 230 -23 149
0 203 9 330 55 263 96 487 347 562 629 32 122 32 338 0 460 -85 319 -345 578
-662 661 -84 21 -283 34 -355 22z m53 -245 l32 -20 0 -146 -1 -147 -134 -72
c-74 -40 -139 -73 -145 -73 -6 0 -71 33 -145 73 l-134 72 -1 116 0 117 38 34
c55 50 152 114 214 142 l53 24 95 -50 c52 -28 110 -59 128 -70z m524 36 c36
-23 85 -59 107 -79 l41 -37 0 -117 -1 -116 -134 -72 c-74 -40 -139 -73 -145
-73 -6 0 -71 33 -145 73 l-135 72 3 149 2 150 124 67 123 67 47 -20 c25 -12
76 -40 113 -64z m-951 -497 l134 -74 3 -149 2 -149 -112 -60 c-61 -33 -125
-67 -140 -75 -28 -13 -33 -12 -113 30 -84 45 -84 45 -96 95 -18 81 -22 215
-10 291 l12 70 82 46 c45 25 87 46 93 47 6 1 71 -32 145 -72z m1232 26 l86
-47 10 -61 c19 -105 8 -283 -20 -336 -9 -17 -149 -99 -169 -99 -5 0 -71 33
-145 73 l-135 72 3 149 2 149 130 73 c72 39 135 72 141 73 6 1 50 -20 97 -46z
m-912 -546 l134 -74 3 -149 2 -149 -109 -58 -110 -58 -61 25 c-70 29 -211 120
-253 164 -27 28 -28 32 -25 127 l3 98 130 73 c72 40 135 72 141 73 6 1 71 -32
145 -72z m640 0 l134 -74 3 -98 c3 -111 4 -109 -88 -179 -68 -52 -116 -80
-192 -112 l-59 -25 -110 58 -109 58 2 149 3 149 130 73 c72 39 135 72 141 73
6 1 71 -32 145 -72z"/>
</g>
</svg>
